<svg width="207" height="33" viewBox="0 0 207 33" fill="none" xmlns="http://www.w3.org/2000/svg">
<path d="M4.50781 17.4805L14.4102 21.8555V27.3242L0.191406 20.1953V16.2891L4.50781 17.4805ZM14.4102 13.9062L4.50781 18.3594L0.191406 19.4727V15.5859L14.4102 8.45703V13.9062ZM29.4688 1.5625L20.8945 32.4414H16.8711L25.4844 1.5625H29.4688ZM42.5742 18.2617L32.5742 13.8867V8.45703L46.9688 15.6055V19.5117L42.5742 18.2617ZM32.5742 21.875L42.5742 17.4219L46.9688 16.2891V20.1953L32.5742 27.3047V21.875Z" fill="#00875F"/>
<path d="M58.0039 25.8398C58.5117 25.8398 58.9479 25.7357 59.3125 25.5273C59.6901 25.319 59.9766 24.9805 60.1719 24.5117C60.3672 24.043 60.4714 23.4375 60.4844 22.6953H65.6211C65.6211 24.2839 65.2826 25.6576 64.6055 26.8164C63.9414 27.9622 63.043 28.8477 61.9102 29.4727C60.7904 30.0846 59.5208 30.3906 58.1016 30.3906C56.6823 30.3906 55.4453 30.1628 54.3906 29.707C53.3359 29.2513 52.4635 28.5872 51.7734 27.7148C51.0964 26.8424 50.582 25.7812 50.2305 24.5312C49.8919 23.2682 49.7227 21.8229 49.7227 20.1953V18.6523C49.7227 17.0508 49.8919 15.6185 50.2305 14.3555C50.582 13.0924 51.0964 12.0247 51.7734 11.1523C52.4635 10.2799 53.3294 9.61589 54.3711 9.16016C55.4258 8.70443 56.6628 8.47656 58.082 8.47656C59.6055 8.47656 60.9271 8.79557 62.0469 9.43359C63.1667 10.0586 64.0391 10.9831 64.6641 12.207C65.3021 13.431 65.6211 14.9414 65.6211 16.7383H60.4844C60.4714 15.931 60.3737 15.2604 60.1914 14.7266C60.0221 14.1797 59.7552 13.763 59.3906 13.4766C59.0391 13.1771 58.5703 13.0273 57.9844 13.0273C57.3724 13.0273 56.8776 13.1576 56.5 13.418C56.1354 13.6654 55.8555 14.0299 55.6602 14.5117C55.4779 14.9805 55.3542 15.5664 55.2891 16.2695C55.224 16.9727 55.1914 17.7669 55.1914 18.6523V20.1953C55.1914 21.1458 55.2174 21.9727 55.2695 22.6758C55.3346 23.3659 55.4583 23.9518 55.6406 24.4336C55.8359 24.9023 56.1159 25.2539 56.4805 25.4883C56.8581 25.7227 57.3659 25.8398 58.0039 25.8398ZM68.1406 20.1562V18.7305C68.1406 17.0768 68.3359 15.612 68.7266 14.3359C69.1302 13.0599 69.7031 11.9922 70.4453 11.1328C71.1875 10.2604 72.0794 9.60286 73.1211 9.16016C74.1758 8.70443 75.3542 8.47656 76.6562 8.47656C77.9714 8.47656 79.1497 8.70443 80.1914 9.16016C81.2461 9.60286 82.1445 10.2604 82.8867 11.1328C83.6419 11.9922 84.2214 13.0599 84.625 14.3359C85.0286 15.612 85.2305 17.0768 85.2305 18.7305V20.1562C85.2305 21.7969 85.0286 23.2552 84.625 24.5312C84.2214 25.8073 83.6419 26.8815 82.8867 27.7539C82.1445 28.6263 81.2526 29.2839 80.2109 29.7266C79.1693 30.1693 77.9974 30.3906 76.6953 30.3906C75.3932 30.3906 74.2148 30.1693 73.1602 29.7266C72.1185 29.2839 71.2201 28.6263 70.4648 27.7539C69.7096 26.8815 69.1302 25.8073 68.7266 24.5312C68.3359 23.2552 68.1406 21.7969 68.1406 20.1562ZM73.6094 18.7305V20.1562C73.6094 21.1328 73.6745 21.9792 73.8047 22.6953C73.9479 23.4115 74.1497 24.0039 74.4102 24.4727C74.6836 24.9414 75.0091 25.2865 75.3867 25.5078C75.7643 25.7292 76.2005 25.8398 76.6953 25.8398C77.1901 25.8398 77.6328 25.7292 78.0234 25.5078C78.4141 25.2865 78.7331 24.9414 78.9805 24.4727C79.2409 24.0039 79.4297 23.4115 79.5469 22.6953C79.6771 21.9792 79.7422 21.1328 79.7422 20.1562V18.7305C79.7422 17.7799 79.6706 16.9466 79.5273 16.2305C79.3841 15.5013 79.1823 14.9089 78.9219 14.4531C78.6615 13.9844 78.3359 13.6328 77.9453 13.3984C77.5677 13.151 77.138 13.0273 76.6562 13.0273C76.1745 13.0273 75.7448 13.151 75.3672 13.3984C75.0026 13.6328 74.6836 13.9844 74.4102 14.4531C74.1497 14.9089 73.9479 15.5013 73.8047 16.2305C73.6745 16.9466 73.6094 17.7799 73.6094 18.7305ZM98.9219 25.332V0H104.41V30L99.4492 30.0195L98.9219 25.332ZM87.9648 20.1758V18.7695C87.9648 17.0508 88.1081 15.5469 88.3945 14.2578C88.694 12.9688 89.1367 11.8945 89.7227 11.0352C90.3086 10.1758 91.0247 9.53776 91.8711 9.12109C92.7305 8.69141 93.7135 8.47656 94.8203 8.47656C95.8229 8.47656 96.7018 8.73047 97.457 9.23828C98.2253 9.73307 98.8763 10.4297 99.4102 11.3281C99.944 12.2266 100.374 13.2878 100.699 14.5117C101.025 15.7357 101.253 17.0768 101.383 18.5352V20.5664C101.227 21.9466 100.986 23.2357 100.66 24.4336C100.348 25.6315 99.918 26.6732 99.3711 27.5586C98.8372 28.444 98.1927 29.1406 97.4375 29.6484C96.6823 30.1432 95.8034 30.3906 94.8008 30.3906C93.694 30.3906 92.7109 30.1693 91.8516 29.7266C91.0052 29.2839 90.2891 28.6328 89.7031 27.7734C89.1302 26.901 88.694 25.8333 88.3945 24.5703C88.1081 23.2943 87.9648 21.8294 87.9648 20.1758ZM93.4336 18.7695V20.1758C93.4336 21.1654 93.4792 22.0182 93.5703 22.7344C93.6745 23.4375 93.8372 24.0169 94.0586 24.4727C94.293 24.9154 94.599 25.2474 94.9766 25.4688C95.3542 25.6771 95.8229 25.7812 96.3828 25.7812C97.112 25.7812 97.7044 25.599 98.1602 25.2344C98.6159 24.8568 98.9544 24.3424 99.1758 23.6914C99.4102 23.0273 99.5404 22.2656 99.5664 21.4062V17.7148C99.5404 16.9987 99.4557 16.3542 99.3125 15.7812C99.1693 15.2083 98.9674 14.7201 98.707 14.3164C98.4466 13.9128 98.1211 13.6003 97.7305 13.3789C97.3529 13.1576 96.9102 13.0469 96.4023 13.0469C95.8555 13.0469 95.3867 13.1576 94.9961 13.3789C94.6185 13.6003 94.319 13.9453 94.0977 14.4141C93.8763 14.8698 93.707 15.4622 93.5898 16.1914C93.4857 16.9076 93.4336 17.7669 93.4336 18.7695ZM117.047 30.3906C115.602 30.3906 114.319 30.1693 113.199 29.7266C112.092 29.2839 111.155 28.6458 110.387 27.8125C109.618 26.9661 109.033 25.944 108.629 24.7461C108.225 23.5482 108.023 22.181 108.023 20.6445V18.9062C108.023 17.1875 108.219 15.6836 108.609 14.3945C109 13.0924 109.553 11.9987 110.27 11.1133C110.986 10.2279 111.865 9.57031 112.906 9.14062C113.961 8.69792 115.152 8.47656 116.48 8.47656C117.809 8.47656 118.974 8.69792 119.977 9.14062C120.992 9.57031 121.832 10.2214 122.496 11.0938C123.16 11.9531 123.661 13.0208 124 14.2969C124.339 15.5729 124.508 17.0573 124.508 18.75V21.25H110.348V17.4023H119.137V16.9141C119.137 16.0547 119.046 15.3385 118.863 14.7656C118.681 14.1797 118.395 13.7435 118.004 13.457C117.613 13.1706 117.092 13.0273 116.441 13.0273C115.895 13.0273 115.432 13.138 115.055 13.3594C114.677 13.5807 114.378 13.9258 114.156 14.3945C113.935 14.8633 113.772 15.4753 113.668 16.2305C113.564 16.9727 113.512 17.8646 113.512 18.9062V20.6445C113.512 21.6211 113.596 22.4414 113.766 23.1055C113.935 23.7565 114.182 24.2904 114.508 24.707C114.846 25.1107 115.257 25.4036 115.738 25.5859C116.22 25.7552 116.78 25.8398 117.418 25.8398C118.382 25.8398 119.247 25.6706 120.016 25.332C120.797 24.9805 121.461 24.5052 122.008 23.9062L124.195 27.2266C123.818 27.7214 123.297 28.2161 122.633 28.7109C121.969 29.2057 121.174 29.6094 120.25 29.9219C119.326 30.2344 118.258 30.3906 117.047 30.3906ZM133.043 13.3789V30H127.555V8.86719H132.691L133.043 13.3789ZM132.223 18.7109L130.758 18.75C130.732 17.1615 130.882 15.7357 131.207 14.4727C131.546 13.2096 132.021 12.1354 132.633 11.25C133.258 10.3516 134 9.66797 134.859 9.19922C135.732 8.71745 136.702 8.47656 137.77 8.47656C138.59 8.47656 139.339 8.61979 140.016 8.90625C140.706 9.19271 141.298 9.64844 141.793 10.2734C142.288 10.8984 142.672 11.7318 142.945 12.7734C143.219 13.8021 143.355 15.0651 143.355 16.5625V30H137.867V16.5234C137.867 15.612 137.776 14.9089 137.594 14.4141C137.411 13.9062 137.138 13.5547 136.773 13.3594C136.409 13.151 135.953 13.0469 135.406 13.0469C134.885 13.0469 134.423 13.1966 134.02 13.4961C133.616 13.7826 133.277 14.1797 133.004 14.6875C132.743 15.1953 132.542 15.7943 132.398 16.4844C132.268 17.1745 132.21 17.9167 132.223 18.7109ZM155.875 30.3906C154.43 30.3906 153.147 30.1693 152.027 29.7266C150.921 29.2839 149.983 28.6458 149.215 27.8125C148.447 26.9661 147.861 25.944 147.457 24.7461C147.053 23.5482 146.852 22.181 146.852 20.6445V18.9062C146.852 17.1875 147.047 15.6836 147.438 14.3945C147.828 13.0924 148.382 11.9987 149.098 11.1133C149.814 10.2279 150.693 9.57031 151.734 9.14062C152.789 8.69792 153.98 8.47656 155.309 8.47656C156.637 8.47656 157.802 8.69792 158.805 9.14062C159.82 9.57031 160.66 10.2214 161.324 11.0938C161.988 11.9531 162.49 13.0208 162.828 14.2969C163.167 15.5729 163.336 17.0573 163.336 18.75V21.25H149.176V17.4023H157.965V16.9141C157.965 16.0547 157.874 15.3385 157.691 14.7656C157.509 14.1797 157.223 13.7435 156.832 13.457C156.441 13.1706 155.921 13.0273 155.27 13.0273C154.723 13.0273 154.26 13.138 153.883 13.3594C153.505 13.5807 153.206 13.9258 152.984 14.3945C152.763 14.8633 152.6 15.4753 152.496 16.2305C152.392 16.9727 152.34 17.8646 152.34 18.9062V20.6445C152.34 21.6211 152.424 22.4414 152.594 23.1055C152.763 23.7565 153.01 24.2904 153.336 24.707C153.674 25.1107 154.085 25.4036 154.566 25.5859C155.048 25.7552 155.608 25.8398 156.246 25.8398C157.21 25.8398 158.076 25.6706 158.844 25.332C159.625 24.9805 160.289 24.5052 160.836 23.9062L163.023 27.2266C162.646 27.7214 162.125 28.2161 161.461 28.7109C160.797 29.2057 160.003 29.6094 159.078 29.9219C158.154 30.2344 157.086 30.3906 155.875 30.3906ZM171.461 24.4336L175.152 8.86719H178.59L177.75 15.1953L174.117 30H171.246L171.461 24.4336ZM170.406 8.86719L172.926 24.3945L172.906 30H169.547L165.152 8.86719H170.406ZM181.363 24.1406L183.805 8.86719H189.098L184.684 30H181.324L181.363 24.1406ZM179.059 8.86719L182.75 24.3164L183.004 30H180.133L176.5 15.2344L175.68 8.86719H179.059ZM201.227 24.2969C201.227 23.9323 201.103 23.6068 200.855 23.3203C200.608 23.0339 200.217 22.7409 199.684 22.4414C199.15 22.1289 198.44 21.7839 197.555 21.4062C196.591 21.0156 195.738 20.612 194.996 20.1953C194.254 19.7786 193.622 19.3164 193.102 18.8086C192.594 18.3008 192.21 17.7214 191.949 17.0703C191.689 16.4193 191.559 15.6771 191.559 14.8438C191.559 13.9453 191.721 13.1185 192.047 12.3633C192.385 11.5951 192.867 10.9245 193.492 10.3516C194.117 9.76562 194.879 9.3099 195.777 8.98438C196.689 8.64583 197.711 8.47656 198.844 8.47656C200.432 8.47656 201.793 8.75651 202.926 9.31641C204.072 9.86328 204.951 10.6315 205.562 11.6211C206.174 12.6107 206.48 13.763 206.48 15.0781H201.012C201.012 14.6094 200.94 14.1927 200.797 13.8281C200.654 13.4505 200.419 13.1576 200.094 12.9492C199.781 12.7409 199.358 12.6367 198.824 12.6367C198.434 12.6367 198.082 12.7214 197.77 12.8906C197.47 13.0599 197.229 13.2878 197.047 13.5742C196.878 13.8477 196.793 14.1732 196.793 14.5508C196.793 14.8372 196.852 15.0911 196.969 15.3125C197.099 15.5339 197.301 15.7487 197.574 15.957C197.848 16.1654 198.212 16.3867 198.668 16.6211C199.137 16.8424 199.71 17.0898 200.387 17.3633C201.793 17.8841 202.945 18.444 203.844 19.043C204.755 19.6419 205.432 20.3451 205.875 21.1523C206.318 21.9466 206.539 22.9297 206.539 24.1016C206.539 25.0391 206.357 25.8919 205.992 26.6602C205.641 27.4284 205.126 28.0924 204.449 28.6523C203.772 29.2122 202.958 29.6419 202.008 29.9414C201.07 30.2409 200.022 30.3906 198.863 30.3906C197.158 30.3906 195.719 30.0521 194.547 29.375C193.375 28.6979 192.49 27.832 191.891 26.7773C191.292 25.7096 190.992 24.6029 190.992 23.457H196.188C196.214 24.1602 196.344 24.7135 196.578 25.1172C196.826 25.5078 197.158 25.7812 197.574 25.9375C197.991 26.0938 198.453 26.1719 198.961 26.1719C199.469 26.1719 199.885 26.1068 200.211 25.9766C200.549 25.8333 200.803 25.6185 200.973 25.332C201.142 25.0326 201.227 24.6875 201.227 24.2969Z" fill="white"/>
</svg>
